<?xml version="1.0" standalone="no"?>
<!DOCTYPE svg PUBLIC "-//W3C//DTD SVG 20010904//EN"
 "http://www.w3.org/TR/2001/REC-SVG-20010904/DTD/svg10.dtd">
<svg version="1.0" xmlns="http://www.w3.org/2000/svg"
 width="200.000000pt" height="200.000000pt" viewBox="0 0 200.000000 200.000000"
 preserveAspectRatio="xMidYMid meet">

<g transform="translate(0.000000,200.000000) scale(0.100000,-0.100000)"
fill="#000000" stroke="none">
<path d="M775 1754 c-130 -130 -234 -238 -231 -241 2 -3 42 0 87 6 106 14 291
14 420 -1 92 -10 104 -9 133 7 17 10 33 21 36 24 11 13 132 73 137 68 3 -3
-21 -31 -52 -62 -32 -31 -56 -57 -54 -58 2 -2 40 -11 84 -21 44 -10 97 -25
118 -32 20 -8 46 -14 57 -14 11 0 20 -4 20 -8 0 -8 85 -42 104 -42 5 0 -105
111 -244 248 -139 136 -274 269 -299 295 -25 27 -54 53 -63 58 -13 7 -62 -37
-253 -227z"/>
<path d="M1551 1864 c-2 -32 -43 -87 -70 -94 -33 -8 -39 -30 -8 -30 31 0 59
-34 80 -100 3 -8 6 -2 6 13 1 37 35 85 64 89 28 4 29 22 1 26 -31 4 -56 36
-64 80 -4 20 -8 28 -9 16z"/>
<path d="M385 1449 c-22 -4 -74 -13 -115 -19 -119 -17 -140 -22 -140 -30 0 -5
21 -11 48 -15 26 -3 58 -8 72 -11 14 -3 42 -8 63 -11 20 -3 40 -9 42 -14 6 -9
-39 -55 -206 -214 -52 -49 -98 -96 -102 -102 -8 -13 394 -423 413 -423 6 0 10
7 10 15 0 8 4 23 9 33 6 9 33 64 61 121 46 94 126 226 157 259 7 7 13 16 13
20 0 4 11 20 24 35 14 16 40 47 58 70 18 23 71 81 118 129 83 85 86 88 131 88
29 0 51 -6 59 -15 13 -16 8 -26 -35 -70 -11 -11 -40 -47 -65 -80 -25 -33 -47
-62 -50 -65 -18 -18 -150 -226 -150 -237 0 -7 -3 -13 -7 -13 -5 0 -17 -18 -27
-40 -11 -22 -23 -40 -28 -40 -4 0 -8 -5 -8 -10 0 -6 -13 -38 -29 -73 -39 -84
-56 -125 -72 -172 -7 -22 -16 -44 -20 -50 -14 -20 -31 -194 -24 -232 5 -22 10
-31 12 -20 3 9 9 17 14 17 5 0 9 7 9 15 0 24 34 84 48 85 6 0 88 -76 181 -170
l168 -169 479 480 c264 265 484 486 489 491 12 12 -100 138 -122 138 -9 0 -13
-15 -13 -45 0 -25 -6 -60 -14 -78 -16 -37 -98 -123 -126 -132 -11 -4 -20 -11
-20 -16 0 -5 -4 -9 -10 -9 -5 0 -47 -18 -94 -40 -46 -22 -93 -40 -103 -40 -11
0 -23 -3 -27 -7 -37 -37 -596 -115 -596 -84 0 6 14 11 31 11 36 0 207 26 259
40 87 23 157 43 175 50 59 24 162 76 173 87 7 7 17 13 22 13 19 0 89 84 105
126 15 39 15 52 5 89 -23 83 -81 139 -210 206 -55 29 -171 69 -198 69 -10 0
-22 4 -28 8 -13 12 -95 30 -194 44 -103 14 -559 20 -615 7z"/>
</g>
</svg>
